# xmcd CD database file generated by MAGIX-FreeDB- v3.0beta1
#
# Track frame offsets:
#	150
#	18015
#	36148
#	53173
#	73955
#	97745
#	117030
#	132270
#	152795
#	168943
#
# Disc length: 2483
#
# Revision: 1
# Processed by: cddbd v1.5.2PL0 Copyright (c) Steve Scherf et al.
# Submitted via: MAGIX-FreeDB- v3.0beta1
#
DISCID=7609b10a
DTITLE=Various Artist - ドラゴンボールZ ヒット曲集 16  WE GOTTA POWER
DYEAR=1995
DGENRE=Anime
TTITLE0=影山ヒロノブ - WE GOTTA POWER
TTITLE1=TOM - Hey you, crasher
TTITLE2=高瀬麻里子 - Jumpin' Jump!!
TTITLE3=つのごうじ - 時よ止まれ ~MY NAME IS FATHER~
TTITLE4=ルイ - 僕は魔法使い
TTITLE5=影山ヒロノブ - FIGHT OH FIGHTING ROAD
TTITLE6=TOM - ケ·セラ
TTITLE7=高瀬麻里子 - あとはSilence···
TTITLE8=ルイ - 力を超えて
TTITLE9=影山ヒロノブ - 僕達は天使だった
EXTD=
EXTT0=
EXTT1=
EXTT2=
EXTT3=
EXTT4=
EXTT5=
EXTT6=
EXTT7=
EXTT8=
EXTT9=
PLAYORDER=
